<svg class="brand-logo" role="img" aria-label="Redigit" xmlns="http://www.w3.org/2000/svg" viewBox="0 0 883.89 156.42"><path d="M0 0q.5 6.87 3.19 12.74a33 33 0 0 0 7.04 10.06q4.35 4.19 10.14 6.53a33 33 0 0 0 12.48 2.35q6.87 0 12.66-2.35a32 32 0 0 0 10.14-6.53q4.35-4.2 7.04-10.06A37 37 0 0 0 65.87 0Zm62.94 27.4a40 40 0 0 1-13.33 9.06 42.5 42.5 0 0 1-16.76 3.27 42.5 42.5 0 0 1-16.76-3.27 40 40 0 0 1-13.4-9.22 43 43 0 0 1-8.9-14.08A49 49 0 0 1-9.38-4.7q0-9.72 3.36-17.94a42 42 0 0 1 9.38-14.16 42 42 0 0 1 14.33-9.22 50 50 0 0 1 18.36-3.27q10.22 0 18.85 3.6a37 37 0 0 1 14.5 10.65l-5.36 6.2a30 30 0 0 0-12.24-9.13Q44.6-40.9 36.2-40.9q-7.71 0-14.16 2.43a35 35 0 0 0-11.31 6.88 33 33 0 0 0-7.71 10.64A36 36 0 0 0-.17-7.21h74.93q0 .68.08 1.34.08.68.08 1.35 0 9.89-3.18 18.01a41 41 0 0 1-8.8 13.92" style="fill:currentColor;fill-opacity:1;fill-rule:nonzero;stroke:none" transform="matrix(1.33333 0 0 -1.33333 164.03 90.71)"/><path d="M0 0q7 9.23 7 23.06 0 9.23-3.21 16.47A33.5 33.5 0 0 1-5.43 51.8q-6.02 5.02-14.66 7.66-8.65 2.63-19.52 2.63h-41.83v-8.4h41.83q18.12 0 27.59-7.99t9.47-22.64q0-14.5-9.47-22.57t-27.59-8.07h-41.83V-53.2h9.38v37.39h32.45q2.8 0 5.44.16 2.63.17 5.1.5L-1.89-53.2H8.8L-19.85-13Q-7-9.23 0 0" style="fill:currentColor;fill-opacity:1;fill-rule:nonzero;stroke:none" transform="matrix(1.33333 0 0 -1.33333 108.6 83.89)"/><path d="M0 0a57 57 0 0 1-19.35 11.94q-11.28 4.28-25.12 4.28h-45.95v-8.4h45.3q12 0 21.73-3.62T-6.83-6.01A45.5 45.5 0 0 0 3.7-21.58a52 52 0 0 0 3.7-19.84q0-10.87-3.7-19.85A45.5 45.5 0 0 0-6.83-76.83 47 47 0 0 0-23.4-87.04q-9.72-3.62-21.74-3.62h-35.9v49.24h-9.4v-57.64h45.96q13.84 0 25.12 4.28A57 57 0 0 1 0-82.84a53 53 0 0 1 12.52 18.2q4.44 10.53 4.44 23.22T12.52-18.2A53 53 0 0 1 0 0" style="fill:currentColor;fill-opacity:1;fill-rule:nonzero;stroke:none" transform="matrix(1.33333 0 0 -1.33333 425.8 22.73)"/><path d="M0 0v-8.4h41.18v-106.89h9.55V-8.4H91.9V0Z" style="fill:currentColor;fill-opacity:1;fill-rule:nonzero;stroke:none" transform="matrix(1.33333 0 0 -1.33333 761.35 1.1)"/><path d="M533.51 574.58h9.4v12.61h-9.4z" style="fill:var(--accent);fill-opacity:1;fill-rule:nonzero;stroke:none" transform="matrix(1.33333 0 0 -1.33333 -224.72 784.03)"/><path d="M533.51 471.9h9.4v88.37h-9.4z" style="fill:currentColor;fill-opacity:1;fill-rule:nonzero;stroke:none" transform="matrix(1.33333 0 0 -1.33333 -224.72 784.03)"/><path d="M709.74 471.9h9.4v12.62h-9.4z" style="fill:var(--accent);fill-opacity:1;fill-rule:nonzero;stroke:none" transform="matrix(1.33333 0 0 -1.33333 -224.72 784.03)"/><path d="M709.74 498.83h9.4v88.37h-9.4z" style="fill:currentColor;fill-opacity:1;fill-rule:nonzero;stroke:none" transform="matrix(1.33333 0 0 -1.33333 -224.72 784.03)"/><path d="M0 0h54.84v-31.13a43 43 0 0 0-15.07-7.74 62 62 0 0 0-17.05-2.3A54 54 0 0 0 2.3-37.4a49 49 0 0 0-16.23 10.46 48 48 0 0 0-10.7 15.8A50 50 0 0 0-28.5 8.74q0 10.7 3.87 19.84a48 48 0 0 0 10.7 15.81A49 49 0 0 0 2.38 54.84a55 55 0 0 0 20.5 3.79q10.38 0 19.27-3.13 8.9-3.13 16.31-10.54l5.93 6.26a48.5 48.5 0 0 1-18.45 12.02 67 67 0 0 1-23.38 3.96 64 64 0 0 1-24.13-4.45 60 60 0 0 1-19.27-12.2 54 54 0 0 1-12.68-18.44 59 59 0 0 1-4.53-23.38q0-12.52 4.53-23.31a55 55 0 0 1 12.6-18.53A59 59 0 0 1-1.75-45.29a64 64 0 0 1 24.13-4.45q11.85 0 22.73 3.62A50 50 0 0 1 63.9-35.08V8.4H0Z" style="fill:currentColor;fill-opacity:1;fill-rule:nonzero;stroke:none" transform="matrix(1.33333 0 0 -1.33333 588.1 89.6)"/><path d="M0 0h-10.15v-29.19H0v19.04h19.03V0Z" style="fill:var(--accent);fill-opacity:1;fill-rule:nonzero;stroke:none" transform="matrix(1.33333 0 0 -1.33333 318.78 24.45)"/></svg>