<svg class="brand-lockup" role="img" aria-label="Redigit Softwares" xmlns="http://www.w3.org/2000/svg" viewBox="0 0 883.89 236.12"><path d="M0 0q.5 6.87 3.19 12.74a33 33 0 0 0 7.04 10.06q4.35 4.19 10.14 6.53a33 33 0 0 0 12.48 2.35q6.87 0 12.66-2.35a32 32 0 0 0 10.14-6.53q4.35-4.2 7.04-10.06A37 37 0 0 0 65.87 0Zm62.94 27.4a40 40 0 0 1-13.33 9.06 42.5 42.5 0 0 1-16.76 3.27 42.5 42.5 0 0 1-16.76-3.27 40 40 0 0 1-13.4-9.22 43 43 0 0 1-8.9-14.08A49 49 0 0 1-9.38-4.7q0-9.72 3.36-17.94a42 42 0 0 1 9.38-14.16 42 42 0 0 1 14.33-9.22 50 50 0 0 1 18.36-3.27q10.22 0 18.85 3.6a37 37 0 0 1 14.5 10.65l-5.36 6.2a30 30 0 0 0-12.24-9.13Q44.6-40.9 36.2-40.9q-7.71 0-14.16 2.43a35 35 0 0 0-11.31 6.88 33 33 0 0 0-7.71 10.64A36 36 0 0 0-.17-7.21h74.93q0 .68.08 1.34.08.68.08 1.35 0 9.89-3.18 18.01a41 41 0 0 1-8.8 13.92" style="fill:currentColor;fill-opacity:1;fill-rule:nonzero;stroke:none" transform="matrix(1.33333 0 0 -1.33333 164.03 90.71)"/><path d="M0 0q7 9.23 7 23.06 0 9.23-3.21 16.47A33.5 33.5 0 0 1-5.43 51.8q-6.02 5.02-14.66 7.66-8.65 2.63-19.52 2.63h-41.83v-8.4h41.83q18.12 0 27.59-7.99t9.47-22.64q0-14.5-9.47-22.57t-27.59-8.07h-41.83V-53.2h9.38v37.39h32.45q2.8 0 5.44.16 2.63.17 5.1.5L-1.89-53.2H8.8L-19.85-13Q-7-9.23 0 0" style="fill:currentColor;fill-opacity:1;fill-rule:nonzero;stroke:none" transform="matrix(1.33333 0 0 -1.33333 108.6 83.89)"/><path d="M0 0a57 57 0 0 1-19.35 11.94q-11.28 4.28-25.12 4.28h-45.95v-8.4h45.3q12 0 21.73-3.62T-6.83-6.01A45.5 45.5 0 0 0 3.7-21.58a52 52 0 0 0 3.7-19.84q0-10.87-3.7-19.85A45.5 45.5 0 0 0-6.83-76.83 47 47 0 0 0-23.4-87.04q-9.72-3.62-21.74-3.62h-35.9v49.24h-9.4v-57.64h45.96q13.84 0 25.12 4.28A57 57 0 0 1 0-82.84a53 53 0 0 1 12.52 18.2q4.44 10.53 4.44 23.22T12.52-18.2A53 53 0 0 1 0 0" style="fill:currentColor;fill-opacity:1;fill-rule:nonzero;stroke:none" transform="matrix(1.33333 0 0 -1.33333 425.8 22.73)"/><path d="M0 0v-8.4h41.18v-106.89h9.55V-8.4H91.9V0Z" style="fill:currentColor;fill-opacity:1;fill-rule:nonzero;stroke:none" transform="matrix(1.33333 0 0 -1.33333 761.35 1.1)"/><path d="M533.51 574.58h9.4v12.61h-9.4z" style="fill:var(--accent);fill-opacity:1;fill-rule:nonzero;stroke:none" transform="matrix(1.33333 0 0 -1.33333 -224.72 784.03)"/><path d="M533.51 471.9h9.4v88.37h-9.4z" style="fill:currentColor;fill-opacity:1;fill-rule:nonzero;stroke:none" transform="matrix(1.33333 0 0 -1.33333 -224.72 784.03)"/><path d="M709.74 471.9h9.4v12.62h-9.4z" style="fill:var(--accent);fill-opacity:1;fill-rule:nonzero;stroke:none" transform="matrix(1.33333 0 0 -1.33333 -224.72 784.03)"/><path d="M709.74 498.83h9.4v88.37h-9.4z" style="fill:currentColor;fill-opacity:1;fill-rule:nonzero;stroke:none" transform="matrix(1.33333 0 0 -1.33333 -224.72 784.03)"/><path d="M0 0h54.84v-31.13a43 43 0 0 0-15.07-7.74 62 62 0 0 0-17.05-2.3A54 54 0 0 0 2.3-37.4a49 49 0 0 0-16.23 10.46 48 48 0 0 0-10.7 15.8A50 50 0 0 0-28.5 8.74q0 10.7 3.87 19.84a48 48 0 0 0 10.7 15.81A49 49 0 0 0 2.38 54.84a55 55 0 0 0 20.5 3.79q10.38 0 19.27-3.13 8.9-3.13 16.31-10.54l5.93 6.26a48.5 48.5 0 0 1-18.45 12.02 67 67 0 0 1-23.38 3.96 64 64 0 0 1-24.13-4.45 60 60 0 0 1-19.27-12.2 54 54 0 0 1-12.68-18.44 59 59 0 0 1-4.53-23.38q0-12.52 4.53-23.31a55 55 0 0 1 12.6-18.53A59 59 0 0 1-1.75-45.29a64 64 0 0 1 24.13-4.45q11.85 0 22.73 3.62A50 50 0 0 1 63.9-35.08V8.4H0Z" style="fill:currentColor;fill-opacity:1;fill-rule:nonzero;stroke:none" transform="matrix(1.33333 0 0 -1.33333 588.1 89.6)"/><path d="M0 0h-10.15v-29.19H0v19.04h19.03V0Z" style="fill:var(--accent);fill-opacity:1;fill-rule:nonzero;stroke:none" transform="matrix(1.33333 0 0 -1.33333 318.78 24.45)"/><path d="M0 0q-1.42 0-2.79.26-1.36.26-2.58.69T-7.61 2-9.34 3.4l.91 1.6q1.32-1.35 3.57-2.26T0 1.83q1.86 0 3.23.37 1.35.39 2.24 1.04a4.2 4.2 0 0 1 1.7 3.43q0 1.38-.67 2.28a5 5 0 0 1-1.8 1.47q-1.12.58-2.55.97-1.42.38-2.9.74-1.47.37-2.9.82-1.42.45-2.54 1.22A6 6 0 0 0-8 16.11a6 6 0 0 0-.68 2.95q0 1.35.54 2.58.55 1.24 1.66 2.17a9 9 0 0 0 2.85 1.5q1.72.56 4.1.56 2.15 0 4.2-.6t3.56-1.7l-.77-1.67a12.6 12.6 0 0 1-7 2.15q-1.81 0-3.15-.38a6 6 0 0 1-2.18-1.06 4.3 4.3 0 0 1-1.7-3.52q0-1.38.67-2.27a5 5 0 0 1 1.8-1.48q1.14-.58 2.56-.97 1.42-.38 2.9-.74 1.47-.37 2.9-.84 1.42-.48 2.54-1.22a6 6 0 0 0 1.8-1.9q.68-1.14.68-2.9 0-1.34-.54-2.58a6 6 0 0 0-1.7-2.17A9 9 0 0 0 4.15.55 14 14 0 0 0 0 0" style="fill:currentColor;fill-opacity:1;fill-rule:nonzero;stroke:none" transform="matrix(1.33333 0 0 -1.33333 223.03 236.12)"/><path d="M0 0q2.4 0 4.45.84Q6.49 1.68 8 3.15t2.35 3.5.84 4.39-.84 4.4A10 10 0 0 1 8 18.92q-1.52 1.47-3.55 2.31a12 12 0 0 1-4.45.84q-2.4 0-4.44-.84A11 11 0 0 1-8 18.93q-1.5-1.48-2.35-3.5a11 11 0 0 1-.84-4.39q0-2.37.84-4.39A10 10 0 0 1-8 3.15 11 11 0 0 1-4.44.84Q-2.4 0 0 0m0-1.9a14 14 0 0 0-5.28.99 13 13 0 0 0-4.23 2.7 12 12 0 0 0-2.79 4.1q-1 2.38-1 5.15 0 2.81 1 5.17 1 2.37 2.79 4.08A13 13 0 0 0-5.28 23a14 14 0 0 0 5.28.99 14 14 0 0 0 5.28-.99 13 13 0 0 0 4.23-2.7 12 12 0 0 0 2.79-4.08q1-2.37 1-5.17 0-2.77-1-5.16a12 12 0 0 0-2.79-4.1 13 13 0 0 0-4.23-2.7A14 14 0 0 0 0-1.88" style="fill:currentColor;fill-opacity:1;fill-rule:nonzero;stroke:none" transform="matrix(1.33333 0 0 -1.33333 277.64 233.6)"/><path d="M0 0h15.56v-1.86H2.08V-13H0Zm0 12.5h17.16v-1.86H0Z" style="fill:currentColor;fill-opacity:1;fill-rule:nonzero;stroke:none" transform="matrix(1.33333 0 0 -1.33333 323.26 218.53)"/><path d="M0 0v23.65h-9.1v1.86h20.32v-1.86h-9.1V0Z" style="fill:currentColor;fill-opacity:1;fill-rule:nonzero;stroke:none" transform="matrix(1.33333 0 0 -1.33333 380.15 235.87)"/><path d="M0 0h-2.22l-8.64 25.5h2.19l7.65-22.66 7.9 22.67h1.97L16.7 2.77l7.72 22.74h2.04L17.82 0H15.6L7.83 22.52Z" style="fill:currentColor;fill-opacity:1;fill-rule:nonzero;stroke:none" transform="matrix(1.33333 0 0 -1.33333 430.92 235.87)"/><path d="M0 0h-2.22L9.5 25.5h2.08L23.32 0h-2.26L10.53 23.25Z" style="fill:currentColor;fill-opacity:1;fill-rule:nonzero;stroke:none" transform="matrix(1.33333 0 0 -1.33333 488.92 235.87)"/><path d="M0 0h-2.37l-6.01 8.42a16 16 0 0 0-2.33-.15h-7.18V0h-2.08v10.1h9.26q4 0 6.1 1.78t2.1 4.99q0 3.24-2.1 5.01t-6.1 1.77h-9.26v1.86h9.26q2.4 0 4.32-.59a9 9 0 0 0 3.24-1.7 7.4 7.4 0 0 0 2.04-2.7q.7-1.61.7-3.65a8.2 8.2 0 0 0-1.54-5.1 8.2 8.2 0 0 0-4.39-2.88Z" style="fill:currentColor;fill-opacity:1;fill-rule:nonzero;stroke:none" transform="matrix(1.33333 0 0 -1.33333 572.1 235.87)"/><path d="M618.5 411.11h17.15v1.86H618.5zm0 13.89h17.15v-1.86H618.5zm0 12.02h17.15v-1.86H618.5z" style="fill:currentColor;fill-opacity:1;fill-rule:nonzero;stroke:none" transform="matrix(1.33333 0 0 -1.33333 -224.72 784.03)"/><path d="M0 0q-1.42 0-2.79.26-1.36.26-2.58.69Q-6.6 1.38-7.62 2a8 8 0 0 0-1.7 1.39l.9 1.6q1.32-1.35 3.57-2.26T0 1.83q1.86 0 3.22.37 1.37.38 2.24 1.04a4.2 4.2 0 0 1 1.72 3.43q0 1.38-.68 2.27a5 5 0 0 1-1.8 1.48q-1.12.58-2.55.97-1.42.38-2.9.74-1.47.37-2.9.82-1.42.45-2.54 1.22A6 6 0 0 0-8 16.11a6 6 0 0 0-.68 2.95q0 1.35.54 2.58.55 1.24 1.66 2.17a9 9 0 0 0 2.84 1.5q1.74.56 4.1.56 2.16 0 4.21-.6 2.06-.6 3.55-1.7l-.76-1.67a12.6 12.6 0 0 1-7 2.15q-1.81 0-3.15-.38a6 6 0 0 1-2.18-1.06 4.3 4.3 0 0 1-1.7-3.52q0-1.38.67-2.27a5 5 0 0 1 1.8-1.48q1.14-.58 2.56-.97 1.42-.38 2.9-.74 1.47-.37 2.9-.84 1.41-.48 2.54-1.22a6 6 0 0 0 1.8-1.9q.69-1.14.68-2.9 0-1.34-.55-2.58a6 6 0 0 0-1.7-2.17A9 9 0 0 0 4.16.55 14 14 0 0 0 0 0" style="fill:currentColor;fill-opacity:1;fill-rule:nonzero;stroke:none" transform="matrix(1.33333 0 0 -1.33333 660.9 236.12)"/><path d="M298.6 424.27H168.54v-.58H298.6zM701.4 423.69h130.06v.58H701.4Z" style="fill:currentColor;fill-opacity:1;fill-rule:nonzero;stroke:none" transform="matrix(1.33333 0 0 -1.33333 -224.72 784.03)"/></svg>